<?xml version="1.0" encoding="utf-8"?>
<!-- Generator: Adobe Illustrator 23.0.3, SVG Export Plug-In . SVG Version: 6.00 Build 0)  -->
<svg version="1.1" id="Layer_1" xmlns="http://www.w3.org/2000/svg" xmlns:xlink="http://www.w3.org/1999/xlink" x="0px" y="0px"
	 viewBox="0 0 254.2 249.4" style="enable-background:new 0 0 254.2 249.4;" xml:space="preserve">
<style type="text/css">
	.st0{fill:#fad20d;}
</style>
<path class="st0" d="M191.2,66.1L191.2,66.1l-2.1,9.8l-5.6,26.6l-1.3,6.1l-18.6,87.6h-36.9l-19.8-84.2l-19.4,84.2H50.6L19.2,48.4
	h35.4L71.5,141l20.3-64.3h30.2l3.7,11.5l16.9,52.9l7.1-38.5l9.9-54.1h15c0,0.3,0,0.6,0,0.9C174.6,58.5,182,66,191.2,66.1z"/>
<path class="st0" d="M203,48.4c0,5.4-4.4,9.8-9.8,9.8c-0.1,0-0.1,0-0.2,0h0c-5.3-0.1-9.6-4.5-9.6-9.8c0-0.3,0-0.6,0-0.9
	c0.4-5,4.6-8.9,9.8-8.9C198.6,38.6,203,43,203,48.4z"/>
<path class="st0" d="M196.1,30.2c0,0.6-0.1,1.1-0.2,1.7c-0.9-0.2-1.8-0.2-2.8-0.2c-1,0-1.9,0.1-2.9,0.2c-0.1-0.5-0.2-1.1-0.2-1.8
	c0-2.8,2-8.5,3.1-23.8C194.4,21.6,196.1,27.5,196.1,30.2z"/>
<path class="st0" d="M183.6,34.7c-1.5,1.1-2.9,2.4-4,4c-0.4-0.3-0.9-0.6-1.3-1c-1.9-2-4.6-7.5-14.6-19c11.6,10,16.9,12.9,18.9,14.9
	C183,33.9,183.3,34.3,183.6,34.7z"/>
<path class="st0" d="M222.8,77.7c-11.6-10-16.9-12.9-18.9-14.9c-0.3-0.3-0.6-0.7-0.9-1c1.6-1.1,2.9-2.5,4-4.1c0.4,0.3,0.8,0.6,1.2,1
	C210.2,60.7,212.8,66.1,222.8,77.7z"/>
<path class="st0" d="M235.1,48.2C219.8,49.3,214,51,211.2,51c-0.5,0-1,0-1.5-0.2c0.1-0.8,0.2-1.6,0.2-2.5c0-1.1-0.1-2.1-0.3-3.2
	c0.5-0.1,1.1-0.2,1.7-0.2C214,45.1,219.8,47.1,235.1,48.2z"/>
<path class="st0" d="M222.8,18.6c-10,11.6-12.9,16.9-14.9,18.9c-0.4,0.4-0.9,0.8-1.3,1c-1.1-1.5-2.4-2.8-4-3.9
	c0.3-0.5,0.7-0.9,1.1-1.4C205.8,31.3,211.3,28.6,222.8,18.6z"/>
</svg>
 